<svg xmlns="http://www.w3.org/2000/svg" xmlns:xlink="http://www.w3.org/1999/xlink" width="500" zoomAndPan="magnify" viewBox="0 0 375 374.999991" height="500" preserveAspectRatio="xMidYMid meet" version="1.0"><defs><g/><clipPath id="fc90f7df6b"><path d="M 119 140 L 152 140 L 152 175 L 119 175 Z M 119 140 " clip-rule="nonzero"/></clipPath><clipPath id="474cb5e074"><path d="M 114.648438 143.910156 L 150.65625 136.558594 L 157.710938 171.09375 L 121.703125 178.445312 Z M 114.648438 143.910156 " clip-rule="nonzero"/></clipPath><clipPath id="23984b4212"><path d="M 114.648438 143.910156 L 150.65625 136.558594 L 157.710938 171.09375 L 121.703125 178.445312 Z M 114.648438 143.910156 " clip-rule="nonzero"/></clipPath><clipPath id="2a21691581"><path d="M 96 152 L 121 152 L 121 170 L 96 170 Z M 96 152 " clip-rule="nonzero"/></clipPath><clipPath id="5a6e6249be"><path d="M 95.707031 152.136719 L 118.828125 149.707031 L 121.101562 171.335938 L 97.980469 173.769531 Z M 95.707031 152.136719 " clip-rule="nonzero"/></clipPath><clipPath id="1a76d1ef68"><path d="M 118.769531 149.710938 L 95.648438 152.144531 L 97.921875 173.773438 L 121.042969 171.34375 Z M 118.769531 149.710938 " clip-rule="nonzero"/></clipPath></defs><g fill="#fff" fill-opacity="1"><g transform="translate(90.887809, 208.749298)"><g><path d="M 2.78125 9.46875 L 13.671875 4.125 C 15.671875 7.4375 19.148438 9.09375 24.109375 9.09375 C 26.410156 9.09375 28.546875 8.351562 30.515625 6.875 C 32.492188 5.394531 33.484375 3.128906 33.484375 0.078125 L 33.484375 -2.78125 C 31.140625 -0.175781 26.9375 1.125 20.875 1.125 C 15.320312 1.125 10.742188 -0.835938 7.140625 -4.765625 C 3.535156 -8.691406 1.734375 -13.507812 1.734375 -19.21875 C 1.734375 -24.925781 3.535156 -29.757812 7.140625 -33.71875 C 10.742188 -37.675781 15.320312 -39.65625 20.875 -39.65625 C 25.832031 -39.65625 29.960938 -38.125 33.265625 -35.0625 L 33.484375 -35.0625 L 33.484375 -38.515625 L 46.78125 -38.515625 L 46.78125 1.046875 C 46.78125 7.304688 44.703125 12.140625 40.546875 15.546875 C 36.390625 18.953125 30.910156 20.65625 24.109375 20.65625 C 13.085938 20.65625 5.976562 16.925781 2.78125 9.46875 Z M 18.4375 -25.75 C 16.707031 -24.050781 15.84375 -21.875 15.84375 -19.21875 C 15.84375 -16.570312 16.664062 -14.410156 18.3125 -12.734375 C 19.96875 -11.054688 22.148438 -10.21875 24.859375 -10.21875 C 27.460938 -10.21875 29.601562 -11.066406 31.28125 -12.765625 C 32.957031 -14.460938 33.796875 -16.613281 33.796875 -19.21875 C 33.796875 -21.875 32.929688 -24.050781 31.203125 -25.75 C 29.472656 -27.457031 27.359375 -28.3125 24.859375 -28.3125 C 22.304688 -28.3125 20.164062 -27.457031 18.4375 -25.75 Z M 18.4375 -25.75 "/></g></g></g><g fill="#fff" fill-opacity="1"><g transform="translate(135.790033, 208.749298)"><g><path d="M 4.5 0 L 4.5 -38.515625 L 17.796875 -38.515625 L 17.796875 -32.96875 L 17.953125 -32.96875 C 18.046875 -33.164062 18.203125 -33.414062 18.421875 -33.71875 C 18.648438 -34.019531 19.140625 -34.546875 19.890625 -35.296875 C 20.648438 -36.046875 21.453125 -36.71875 22.296875 -37.3125 C 23.148438 -37.914062 24.253906 -38.457031 25.609375 -38.9375 C 26.960938 -39.414062 28.335938 -39.65625 29.734375 -39.65625 C 31.191406 -39.65625 32.617188 -39.453125 34.015625 -39.046875 C 35.421875 -38.648438 36.445312 -38.25 37.09375 -37.84375 L 38.140625 -37.25 L 32.59375 -25.984375 C 30.9375 -27.378906 28.632812 -28.078125 25.6875 -28.078125 C 24.082031 -28.078125 22.703125 -27.726562 21.546875 -27.03125 C 20.398438 -26.332031 19.585938 -25.484375 19.109375 -24.484375 C 18.628906 -23.484375 18.289062 -22.628906 18.09375 -21.921875 C 17.894531 -21.222656 17.796875 -20.675781 17.796875 -20.28125 L 17.796875 0 Z M 4.5 0 "/></g></g></g><g fill="#fff" fill-opacity="1"><g transform="translate(166.800847, 208.749298)"><g><path d="M 8.140625 -4.578125 C 3.867188 -8.378906 1.734375 -13.257812 1.734375 -19.21875 C 1.734375 -25.175781 3.957031 -30.070312 8.40625 -33.90625 C 12.863281 -37.738281 18.375 -39.65625 24.9375 -39.65625 C 31.394531 -39.65625 36.835938 -37.722656 41.265625 -33.859375 C 45.691406 -30.003906 47.90625 -25.125 47.90625 -19.21875 C 47.90625 -13.3125 45.738281 -8.441406 41.40625 -4.609375 C 37.082031 -0.785156 31.59375 1.125 24.9375 1.125 C 18.019531 1.125 12.421875 -0.773438 8.140625 -4.578125 Z M 18.4375 -25.75 C 16.707031 -24.050781 15.84375 -21.875 15.84375 -19.21875 C 15.84375 -16.570312 16.664062 -14.410156 18.3125 -12.734375 C 19.96875 -11.054688 22.148438 -10.21875 24.859375 -10.21875 C 27.460938 -10.21875 29.601562 -11.066406 31.28125 -12.765625 C 32.957031 -14.460938 33.796875 -16.613281 33.796875 -19.21875 C 33.796875 -21.875 32.929688 -24.050781 31.203125 -25.75 C 29.472656 -27.457031 27.359375 -28.3125 24.859375 -28.3125 C 22.304688 -28.3125 20.164062 -27.457031 18.4375 -25.75 Z M 18.4375 -25.75 "/></g></g></g><g fill="#fff" fill-opacity="1"><g transform="translate(210.051123, 208.749298)"><g><path d="M 28.15625 0 L 19.15625 0 L -1.5 -38.515625 L 13.8125 -38.515625 L 23.203125 -17.71875 L 32.4375 -38.515625 L 41.609375 -38.515625 L 50.84375 -17.71875 L 60.21875 -38.515625 L 75.546875 -38.515625 L 54.890625 0 L 45.875 0 L 37.015625 -19.90625 Z M 28.15625 0 "/></g></g></g><g clip-path="url(#fc90f7df6b)"><g clip-path="url(#474cb5e074)"><g clip-path="url(#23984b4212)"><path fill="#fff" d="M 143.933594 144.28125 C 126.898438 147.679688 119.382812 157.492188 121.960938 174.101562 C 121.992188 174.308594 121.691406 174.382812 121.621094 174.183594 C 119.765625 168.964844 118.910156 164.035156 119.40625 159.5 C 121.039062 144.527344 137.835938 139.179688 150.929688 141.136719 C 151.582031 141.234375 151.863281 141.992188 151.441406 142.5 C 143.488281 152.039062 149.019531 172.519531 124.050781 168.253906 C 125.367188 156.285156 131.355469 147.816406 143.933594 144.28125 " fill-opacity="1" fill-rule="evenodd"/></g></g></g><g clip-path="url(#2a21691581)"><g clip-path="url(#5a6e6249be)"><g clip-path="url(#1a76d1ef68)"><path fill="#fff" d="M 101.265625 155.492188 C 112.132812 154.296875 118.507812 158.761719 120.109375 169.21875 C 120.132812 169.347656 120.324219 169.335938 120.328125 169.203125 C 120.453125 165.71875 120.03125 162.597656 118.871094 159.96875 C 115.050781 151.292969 103.957031 151.269531 96.46875 154.929688 C 96.097656 155.113281 96.070312 155.621094 96.421875 155.847656 C 103.003906 160.0625 103.570312 173.402344 117.746094 166.105469 C 114.683594 159.171875 109.484375 155.226562 101.265625 155.492188 " fill-opacity="1" fill-rule="evenodd"/></g></g></g></svg>